{"title":"The Bank Job(2008)MP-4[DaScubaDude]","uid":12474224,"size":1371148155,"categoryP":"video","categoryS":"movies","magnet":"?xt=urn:btih:ee3726ad9cb0e3b01832cc32826ad92a0d3a6a5a&amp;dn=The+Bank+Job%282008%29MP-4%5BDaScubaDude%5D&amp;tr=udp%3A%2F%2Ftracker.openbittorrent.com%3A80&amp;tr=udp%3A%2F%2Fopen.demonii.com%3A1337&amp;tr=udp%3A%2F%2Ftracker.coppersurfer.tk%3A6969&amp;tr=udp%3A%2F%2Fexodus.desync.com%3A6969","seeders":0,"leechers":0,"uploader":"dascuba","files":1,"time":1442956623,"description":"The Bank Job (2008)\nR  |  111 min  |  Crime, Drama, Thriller  |  7 March 2008 (USA)\n7.3 Your rating:   -/10   Ratings: 7.3/10 from 145,300 users   Metascore: 69/100 \nReviews: 185 user | 218 critic | 32 from Metacritic.com\nMartine offers Terry a lead on a foolproof bank hit on London's Baker Street. She targets a roomful of safe deposit boxes worth millions in cash and jewelry. But Terry and his crew don't realize the boxes also contain a treasure trove of dirty secrets - secrets that will thrust them into a deadly web of corruption and illicit scandal.\n\nDirector: Roger Donaldson\nWriters: Dick Clement, Ian La Frenais\nStars: Jason Statham, Saffron Burrows, Stephen Campbell Moore\n\nGeneral\nComplete name                            : C:The Bank JobThe Bank Job_Title1.mp4\nFormat                                   : MPEG-4\nFormat profile                           : Base Media\nCodec ID                                 : isom\nFile size                                : 1.28 GiB\nDuration                                 : 1h 51mn\nOverall bit rate mode                    : Constant\nOverall bit rate                         : 1 633 Kbps\nMovie name                               : The_Bank_Job\nGenre                                    : Crime\nWriting application                      : Lavf54.6.100\n\nVideo\nID                                       : 1\nFormat                                   : MPEG-4 Visual\nFormat settings, BVOP                    : No\nFormat settings, QPel                    : No\nFormat settings, GMC                     : No warppoints\nFormat settings, Matrix                  : Default (H.263)\nCodec ID                                 : 20\nDuration                                 : 1h 51mn\nBit rate mode                            : Constant\nBit rate                                 : 1 499 Kbps\nWidth                                    : 720 pixels\nHeight                                   : 404 pixels\nDisplay aspect ratio                     : 16:9\nFrame rate mode                          : Constant\nFrame rate                               : 29.970 fps\nColor space                              : YUV\nChroma subsampling                       : 4:2:0\nBit depth                                : 8 bits\nScan type                                : Progressive\nCompression mode                         : Lossy\nBits/(Pixel*Frame)                       : 0.172\nStream size                              : 1.17 GiB (92%)\nWriting library                          : Lavc54.23.100\n\nAudio\nID                                       : 2\nFormat                                   : MPEG Audio\nFormat version                           : Version 1\nFormat profile                           : Layer 3\nCodec ID                                 : 6B\nDuration                                 : 1h 51mn\nBit rate mode                            : Constant\nBit rate                                 : 128 Kbps\nChannel(s)                               : 2 channels\nSampling rate                            : 44.1 KHz\nCompression mode                         : Lossy\nStream size                              : 103 MiB (8%)\nWriting library                          : LAME3.99.5","torrent":{"xt":"urn:btih:ee3726ad9cb0e3b01832cc32826ad92a0d3a6a5a","amp;dn":"The+Bank+Job%282008%29MP-4%5BDaScubaDude%5D","amp;tr":["udp%3A%2F%2Ftracker.openbittorrent.com%3A80","udp%3A%2F%2Fopen.demonii.com%3A1337","udp%3A%2F%2Ftracker.coppersurfer.tk%3A6969","udp%3A%2F%2Fexodus.desync.com%3A6969"],"infoHash":"ee3726ad9cb0e3b01832cc32826ad92a0d3a6a5a","infoHashBuffer":{"type":"Buffer","data":[238,55,38,173,156,176,227,176,24,50,204,50,130,106,217,42,13,58,106,90]},"announce":[],"urlList":[]}}